{"asset":{"version":"2.0","generator":"THREE.GLTFExporter"},"scenes":[{"nodes":[0]}],"scene":0,"nodes":[{"mesh":0}],"bufferViews":[{"buffer":0,"byteOffset":0,"byteLength":34092,"target":34962,"byteStride":12},{"buffer":0,"byteOffset":34092,"byteLength":5684,"target":34963}],"buffers":[{"byteLength":39776,"uri":"data:application/octet-stream;base64,"}],"accessors":[{"bufferView":0,"componentType":5126,"count":2841,"max":[99.19999694824219,7,99.19999694824219],"min":[-99.19999694824219,0.20000000298023224,-99.19999694824219],"type":"VEC3"},{"bufferView":1,"componentType":5123,"count":2841,"max":[2840],"min":[0],"type":"SCALAR"}],"materials":[{"pbrMetallicRoughness":{"metallicFactor":0,"roughnessFactor":1}}],"meshes":[{"primitives":[{"mode":4,"attributes":{"POSITION":0},"indices":1,"material":0}]}]}